<svg xmlns="http://www.w3.org/2000/svg" width="210" height="32" viewBox="0 0 210 32">
  <metadata><?xpacket begin="﻿" id="W5M0MpCehiHzreSzNTczkc9d"?>
<x:xmpmeta xmlns:x="adobe:ns:meta/" x:xmptk="Adobe XMP Core 5.6-c138 79.159824, 2016/09/14-01:09:01        ">
   <rdf:RDF xmlns:rdf="http://www.w3.org/1999/02/22-rdf-syntax-ns#">
      <rdf:Description rdf:about=""/>
   </rdf:RDF>
</x:xmpmeta>
                                                                                                    
                                                                                                    
                                                                                                    
                                                                                                    
                                                                                                    
                                                                                                    
                                                                                                    
                                                                                                    
                                                                                                    
                                                                                                    
                                                                                                    
                                                                                                    
                                                                                                    
                                                                                                    
                                                                                                    
                                                                                                    
                                                                                                    
                                                                                                    
                                                                                                    
                                                                                                    
                           
<?xpacket end="w"?></metadata>
<defs>
    <style>
      .cls-1 {
        font-size: 14.171px;
        font-family: "Myriad Pro";
      }

      .cls-2 {
        fill: #991a1b;
      }

      .cls-3 {
        fill: #fff;
        fill-rule: evenodd;
      }
    </style>
  </defs>
  <text id="teamwork" class="cls-1" transform="translate(36.151 30.409) scale(3.067 3.06)">teamwork</text>
  <ellipse id="Elipse_1" data-name="Elipse 1" class="cls-2" cx="18.344" cy="17.688" rx="14.344" ry="14.313"/>
  <path id="Rectángulo_1" data-name="Rectángulo 1" class="cls-3" d="M13,15h2V25H13V15Zm0,0h2V25H13V15Zm0,0h2V25H13V15Zm0,0h2V25H13V15Zm0,0h2V25H13V15Zm0,0h2V25H13V15Zm0,0h2V25H13V15Zm0,0h2V25H13V15Z"/>
  <path id="Rectángulo_1_copia" data-name="Rectángulo 1 copia" class="cls-3" d="M17,13h2V25H17V13Zm0,0h2V25H17V13Zm0,0h2V25H17V13Zm0,0h2V25H17V13Zm0,0h2V25H17V13Zm0,0h2V25H17V13Zm0,0h2V25H17V13Zm0,0h2V25H17V13Z"/>
  <path id="Rectángulo_1_copia_2" data-name="Rectángulo 1 copia 2" class="cls-3" d="M21,11h2V25H21V11Zm0,0h2V25H21V11Zm0,0h2V25H21V11Zm0,0h2V25H21V11Zm0,0h2V25H21V11Zm0,0h2V25H21V11Zm0,0h2V25H21V11Zm0,0h2V25H21V11Z"/>
</svg>
